<svg width="40" height="41" viewBox="0 0 40 41" fill="none" xmlns="http://www.w3.org/2000/svg">
<rect x="0.000671387" y="0.303741" width="40" height="40" rx="20" fill="#D6D9FF"/>
<path d="M15.3288 20.1631H12.4304L12.4147 18.7334H14.946C15.3731 18.7334 15.735 18.6709 16.0319 18.5459C16.334 18.4157 16.5632 18.2308 16.7194 17.9912C16.8757 17.7464 16.9538 17.4522 16.9538 17.1084C16.9538 16.7282 16.8809 16.4183 16.735 16.1787C16.5892 15.9392 16.3653 15.7647 16.0632 15.6553C15.7663 15.5459 15.3861 15.4912 14.9225 15.4912H13.0241V25.3037H11.0632V13.9287H14.9225C15.5475 13.9287 16.1048 13.9886 16.5944 14.1084C17.0892 14.2282 17.5085 14.4157 17.8522 14.6709C18.2012 14.9209 18.4642 15.2386 18.6413 15.6241C18.8236 16.0095 18.9147 16.4678 18.9147 16.9991C18.9147 17.4678 18.8028 17.8975 18.5788 18.2881C18.3548 18.6735 18.0241 18.9886 17.5866 19.2334C17.1491 19.4782 16.6048 19.6241 15.9538 19.6709L15.3288 20.1631ZM15.2429 25.3037H11.8132L12.696 23.7491H15.2429C15.6856 23.7491 16.0554 23.6761 16.3522 23.5303C16.6491 23.3793 16.8705 23.1735 17.0163 22.9131C17.1673 22.6475 17.2429 22.3376 17.2429 21.9834C17.2429 21.6136 17.1778 21.2933 17.0475 21.0225C16.9173 20.7464 16.7116 20.5355 16.4304 20.3897C16.1491 20.2386 15.7819 20.1631 15.3288 20.1631H13.1257L13.1413 18.7334H16.0085L16.4538 19.2725C17.0788 19.2933 17.5918 19.4313 17.9929 19.6866C18.3991 19.9418 18.7012 20.2725 18.8991 20.6787C19.097 21.085 19.196 21.5225 19.196 21.9912C19.196 22.7152 19.0371 23.322 18.7194 23.8116C18.4069 24.3011 17.9564 24.6735 17.3679 24.9287C16.7793 25.1787 16.071 25.3037 15.2429 25.3037ZM21.1725 13.9287H25.196C26.0606 13.9287 26.7975 14.0589 27.4069 14.3194C28.0163 14.5798 28.4824 14.9652 28.8054 15.4756C29.1335 15.9808 29.2975 16.6058 29.2975 17.3506C29.2975 17.9183 29.1934 18.4183 28.985 18.8506C28.7767 19.2829 28.4824 19.6475 28.1022 19.9444C27.722 20.236 27.2689 20.4626 26.7429 20.6241L26.1491 20.9131H22.5319L22.5163 19.3584H25.2272C25.696 19.3584 26.0866 19.2751 26.3991 19.1084C26.7116 18.9418 26.946 18.7152 27.1022 18.4287C27.2637 18.1371 27.3444 17.8089 27.3444 17.4444C27.3444 17.0485 27.2663 16.7048 27.11 16.4131C26.959 16.1162 26.7246 15.8897 26.4069 15.7334C26.0892 15.572 25.6856 15.4912 25.196 15.4912H23.1335V25.3037H21.1725V13.9287ZM27.6647 25.3037L24.9929 20.1944L27.0475 20.1866L29.7585 25.2022V25.3037H27.6647Z" fill="#475467"/>
</svg>
