<svg width="40" height="41" viewBox="0 0 40 41" fill="none" xmlns="http://www.w3.org/2000/svg">
<rect x="0.000671387" y="0.303741" width="40" height="40" rx="20" fill="#D6D9FF"/>
<path d="M19.6725 19.3037V19.9287C19.6725 20.7881 19.5606 21.5589 19.3366 22.2412C19.1127 22.9235 18.7923 23.5043 18.3757 23.9834C17.9642 24.4626 17.4694 24.8298 16.8913 25.085C16.3132 25.335 15.6725 25.46 14.9694 25.46C14.2715 25.46 13.6335 25.335 13.0554 25.085C12.4824 24.8298 11.985 24.4626 11.5632 23.9834C11.1413 23.5043 10.8132 22.9235 10.5788 22.2412C10.3496 21.5589 10.235 20.7881 10.235 19.9287V19.3037C10.235 18.4444 10.3496 17.6761 10.5788 16.9991C10.808 16.3168 11.1309 15.736 11.5475 15.2569C11.9694 14.7725 12.4668 14.4053 13.0397 14.1553C13.6179 13.9001 14.2559 13.7725 14.9538 13.7725C15.6569 13.7725 16.2975 13.9001 16.8757 14.1553C17.4538 14.4053 17.9512 14.7725 18.3679 15.2569C18.7845 15.736 19.1048 16.3168 19.3288 16.9991C19.558 17.6761 19.6725 18.4444 19.6725 19.3037ZM17.7116 19.9287V19.2881C17.7116 18.6527 17.6491 18.0928 17.5241 17.6084C17.4043 17.1188 17.2246 16.71 16.985 16.3819C16.7507 16.0485 16.4616 15.7985 16.1179 15.6319C15.7741 15.46 15.3861 15.3741 14.9538 15.3741C14.5215 15.3741 14.1361 15.46 13.7975 15.6319C13.459 15.7985 13.1699 16.0485 12.9304 16.3819C12.696 16.71 12.5163 17.1188 12.3913 17.6084C12.2663 18.0928 12.2038 18.6527 12.2038 19.2881V19.9287C12.2038 20.5642 12.2663 21.1267 12.3913 21.6162C12.5163 22.1058 12.6986 22.5199 12.9382 22.8584C13.183 23.1918 13.4746 23.4444 13.8132 23.6162C14.1517 23.7829 14.5371 23.8662 14.9694 23.8662C15.4069 23.8662 15.7949 23.7829 16.1335 23.6162C16.472 23.4444 16.7585 23.1918 16.9929 22.8584C17.2272 22.5199 17.4043 22.1058 17.5241 21.6162C17.6491 21.1267 17.7116 20.5642 17.7116 19.9287ZM21.6335 13.9287H25.6569C26.5215 13.9287 27.2585 14.0589 27.8679 14.3194C28.4772 14.5798 28.9434 14.9652 29.2663 15.4756C29.5944 15.9808 29.7585 16.6058 29.7585 17.3506C29.7585 17.9183 29.6543 18.4183 29.446 18.8506C29.2377 19.2829 28.9434 19.6475 28.5632 19.9444C28.183 20.236 27.7298 20.4626 27.2038 20.6241L26.61 20.9131H22.9929L22.9772 19.3584H25.6882C26.1569 19.3584 26.5475 19.2751 26.86 19.1084C27.1725 18.9418 27.4069 18.7152 27.5632 18.4287C27.7246 18.1371 27.8054 17.8089 27.8054 17.4444C27.8054 17.0485 27.7272 16.7048 27.571 16.4131C27.4199 16.1162 27.1856 15.8897 26.8679 15.7334C26.5502 15.572 26.1465 15.4912 25.6569 15.4912H23.5944V25.3037H21.6335V13.9287ZM28.1257 25.3037L25.4538 20.1944L27.5085 20.1866L30.2194 25.2022V25.3037H28.1257Z" fill="#475467"/>
</svg>

