<svg width="40" height="41" viewBox="0 0 40 41" fill="none" xmlns="http://www.w3.org/2000/svg">
<rect y="0.303711" width="40" height="40" rx="20" fill="#D6D9FF"/>
<path d="M17.6094 21.6006H19.5625C19.5 22.3454 19.2917 23.0094 18.9375 23.5928C18.5833 24.1709 18.0859 24.6266 17.4453 24.96C16.8047 25.2933 16.026 25.46 15.1094 25.46C14.4062 25.46 13.7734 25.335 13.2109 25.085C12.6484 24.8298 12.1667 24.4704 11.7656 24.0068C11.3646 23.5381 11.0573 22.973 10.8438 22.3115C10.6354 21.6501 10.5312 20.9105 10.5312 20.0928V19.1475C10.5312 18.3298 10.638 17.5902 10.8516 16.9287C11.0703 16.2673 11.3828 15.7021 11.7891 15.2334C12.1953 14.7594 12.6823 14.3975 13.25 14.1475C13.8229 13.8975 14.4661 13.7725 15.1797 13.7725C16.0859 13.7725 16.8516 13.9391 17.4766 14.2725C18.1016 14.6058 18.5859 15.0667 18.9297 15.6553C19.2786 16.2438 19.4922 16.9183 19.5703 17.6787H17.6172C17.5651 17.1891 17.4505 16.7699 17.2734 16.4209C17.1016 16.0719 16.8464 15.8063 16.5078 15.624C16.1693 15.4365 15.7266 15.3428 15.1797 15.3428C14.7318 15.3428 14.3411 15.4261 14.0078 15.5928C13.6745 15.7594 13.3958 16.0042 13.1719 16.3271C12.9479 16.6501 12.7786 17.0485 12.6641 17.5225C12.5547 17.9912 12.5 18.5277 12.5 19.1318V20.0928C12.5 20.6657 12.5495 21.1865 12.6484 21.6553C12.7526 22.1188 12.9089 22.5173 13.1172 22.8506C13.3307 23.1839 13.6016 23.4417 13.9297 23.624C14.2578 23.8063 14.651 23.8975 15.1094 23.8975C15.6667 23.8975 16.1172 23.8089 16.4609 23.6318C16.8099 23.4548 17.0729 23.1969 17.25 22.8584C17.4323 22.5146 17.5521 22.0954 17.6094 21.6006ZM21.3438 13.9287H25.3672C26.2318 13.9287 26.9688 14.0589 27.5781 14.3193C28.1875 14.5798 28.6536 14.9652 28.9766 15.4756C29.3047 15.9808 29.4688 16.6058 29.4688 17.3506C29.4688 17.9183 29.3646 18.4183 29.1562 18.8506C28.9479 19.2829 28.6536 19.6475 28.2734 19.9443C27.8932 20.236 27.4401 20.4626 26.9141 20.624L26.3203 20.9131H22.7031L22.6875 19.3584H25.3984C25.8672 19.3584 26.2578 19.2751 26.5703 19.1084C26.8828 18.9417 27.1172 18.7152 27.2734 18.4287C27.4349 18.137 27.5156 17.8089 27.5156 17.4443C27.5156 17.0485 27.4375 16.7048 27.2812 16.4131C27.1302 16.1162 26.8958 15.8896 26.5781 15.7334C26.2604 15.5719 25.8568 15.4912 25.3672 15.4912H23.3047V25.3037H21.3438V13.9287ZM27.8359 25.3037L25.1641 20.1943L27.2188 20.1865L29.9297 25.2021V25.3037H27.8359Z" fill="#475467"/>
</svg>
