<svg width="164" height="164" viewBox="0 0 164 164" fill="none" xmlns="http://www.w3.org/2000/svg">
<path d="M144.648 92.824C145.14 91.84 145.632 90.692 145.96 89.708C150.224 77.08 143.828 61.828 130.052 58.22C128.576 39.524 115.456 26.896 100.696 24.6C83.804 22.14 68.388 32.8 63.14 49.856C56.908 47.724 50.84 47.888 45.264 51.332C42.64 52.48 40.344 54.284 38.212 56.58C35.096 60.024 33.128 64.288 32.308 68.88C31.16 69.044 29.848 69.208 28.7 69.7C22.14 71.996 17.876 76.916 16.728 84.296C16.072 88.888 17.384 93.48 18.204 95.284C21.32 102.5 28.7 106.764 36.08 105.616C36.408 105.616 37.064 105.78 37.228 105.944C37.556 117.588 43.296 127.92 51.66 133.66C65.272 143.008 82.656 140.22 93.808 127.264C98.564 132.02 104.14 134.48 110.7 133.66C117.26 132.84 122.344 129.232 126.116 123.328C127.756 123.82 129.396 124.476 131.2 124.64C137.76 125.296 143.172 122.672 147.108 116.768C148.584 114.472 150.06 111.52 150.06 106.436C150.224 101.024 148.092 96.104 144.648 92.824Z" fill="#C7EDE6"/>
<path d="M138.58 101.68H122.18C121.688 101.68 121.36 101.352 121.36 100.86C121.36 100.368 121.688 100.04 122.18 100.04H138.58C139.072 100.04 139.4 100.368 139.4 100.86C139.4 101.352 139.072 101.68 138.58 101.68ZM145.14 101.68H141.86C141.368 101.68 141.04 101.352 141.04 100.86C141.04 100.368 141.368 100.04 141.86 100.04H145.14C145.632 100.04 145.96 100.368 145.96 100.86C145.96 101.352 145.632 101.68 145.14 101.68ZM153.34 104.96H136.94C136.448 104.96 136.12 104.632 136.12 104.14C136.12 103.648 136.448 103.32 136.94 103.32H153.34C153.832 103.32 154.16 103.648 154.16 104.14C154.16 104.632 153.832 104.96 153.34 104.96ZM133.66 104.96H132.02C131.528 104.96 131.2 104.632 131.2 104.14C131.2 103.648 131.528 103.32 132.02 103.32H133.66C134.152 103.32 134.48 103.648 134.48 104.14C134.48 104.632 134.152 104.96 133.66 104.96ZM128.576 104.96H125.46C124.968 104.96 124.64 104.632 124.64 104.14C124.64 103.648 124.968 103.32 125.46 103.32H128.576C129.068 103.32 129.396 103.648 129.396 104.14C129.396 104.632 129.068 104.96 128.576 104.96ZM143.5 98.4H135.3C134.808 98.4 134.48 98.072 134.48 97.58C134.48 97.088 134.808 96.76 135.3 96.76H143.5C143.992 96.76 144.32 97.088 144.32 97.58C144.32 98.072 143.992 98.4 143.5 98.4ZM138.58 108.24H135.3C134.808 108.24 134.48 107.912 134.48 107.42C134.48 106.928 134.808 106.6 135.3 106.6H138.58C139.072 106.6 139.4 106.928 139.4 107.42C139.4 107.912 139.072 108.24 138.58 108.24ZM26.896 82H10.66C10.168 82 9.84 81.672 9.84 81.18C9.84 80.688 10.168 80.36 10.66 80.36H26.896C27.388 80.36 27.716 80.688 27.716 81.18C27.716 81.672 27.388 82 26.896 82ZM31.98 82H30.34C29.848 82 29.52 81.672 29.52 81.18C29.52 80.688 29.848 80.36 30.34 80.36H31.98C32.472 80.36 32.8 80.688 32.8 81.18C32.8 81.672 32.472 82 31.98 82ZM40.18 85.28H25.42C24.928 85.28 24.6 84.952 24.6 84.46C24.6 83.968 24.928 83.64 25.42 83.64H40.18C40.672 83.64 41 83.968 41 84.46C41 84.952 40.672 85.28 40.18 85.28ZM22.14 85.28H20.5C20.008 85.28 19.68 84.952 19.68 84.46C19.68 83.968 20.008 83.64 20.5 83.64H22.14C22.632 83.64 22.96 83.968 22.96 84.46C22.96 84.952 22.632 85.28 22.14 85.28ZM17.22 85.28H13.94C13.448 85.28 13.12 84.952 13.12 84.46C13.12 83.968 13.448 83.64 13.94 83.64H17.22C17.712 83.64 18.04 83.968 18.04 84.46C18.04 84.952 17.712 85.28 17.22 85.28ZM27.06 88.56H23.78C23.288 88.56 22.96 88.232 22.96 87.74C22.96 87.248 23.288 86.92 23.78 86.92H27.06C27.552 86.92 27.88 87.248 27.88 87.74C27.88 88.232 27.552 88.56 27.06 88.56ZM31.98 73.8C31.652 73.8 30.668 73.8 30.34 73.8C29.848 73.8 29.52 74.128 29.52 74.62C29.52 75.112 29.848 75.44 30.34 75.44C30.668 75.44 31.652 75.44 31.98 75.44C32.472 75.44 32.8 75.112 32.8 74.62C32.8 74.128 32.472 73.8 31.98 73.8ZM31.98 77.08C31.652 77.08 24.108 77.08 23.78 77.08C23.288 77.08 22.96 77.408 22.96 77.9C22.96 78.392 23.288 78.72 23.78 78.72C24.108 78.72 31.652 78.72 31.98 78.72C32.472 78.72 32.8 78.392 32.8 77.9C32.8 77.408 32.472 77.08 31.98 77.08ZM40.18 80.36C39.852 80.36 35.588 80.36 35.26 80.36C34.768 80.36 34.44 80.688 34.44 81.18C34.44 81.672 34.768 82 35.26 82C35.588 82 39.852 82 40.18 82C40.672 82 41 81.672 41 81.18C41 80.688 40.672 80.36 40.18 80.36Z" fill="white"/>
<path d="M106.764 66.42C106.764 66.42 100.86 66.42 96.76 66.42C92.66 66.42 89.38 63.14 89.38 59.04C89.38 55.268 92.332 52.152 96.104 51.66C96.104 51.332 95.94 51.004 95.94 50.84C95.94 46.74 99.22 43.46 103.32 43.46C105.616 43.46 107.748 44.608 109.06 46.248C109.224 41.984 112.832 38.54 117.26 38.54C121.852 38.54 125.46 42.148 125.46 46.74C125.46 47.396 125.296 48.216 125.132 48.872C126.116 47.56 127.756 46.74 129.56 46.74C132.512 46.74 134.808 48.872 135.3 51.824C135.628 51.824 135.956 51.66 136.12 51.66C140.22 51.66 143.5 54.94 143.5 59.04C143.5 63.14 140.22 66.42 136.12 66.42C132.02 66.42 120.54 66.42 120.54 66.42H111.684V67.24H106.764V66.42Z" fill="#FDFCEF"/>
<path d="M117.26 37.72C122.18 37.72 126.28 41.82 126.28 46.74C127.264 46.084 128.412 45.92 129.56 45.92C132.512 45.92 135.136 48.052 135.956 50.84H136.12C140.712 50.84 144.32 54.448 144.32 59.04C144.32 63.632 140.712 67.24 136.12 67.24H111.684C111.192 67.24 110.864 66.912 110.864 66.42C110.864 65.928 111.192 65.6 111.684 65.6H136.12C139.728 65.6 142.68 62.648 142.68 59.04C142.68 55.432 139.728 52.48 136.12 52.48C135.956 52.48 135.792 52.48 135.628 52.48H135.464C135.464 52.48 135.464 52.48 135.3 52.48C134.972 52.48 134.48 52.152 134.48 51.824C134.152 49.364 132.02 47.56 129.56 47.56C128.084 47.56 126.772 48.216 125.788 49.364C125.624 49.528 125.46 49.692 125.132 49.692C124.968 49.692 124.804 49.692 124.804 49.528C124.476 49.364 124.312 49.036 124.312 48.544C124.476 47.888 124.64 47.232 124.64 46.576C124.64 42.476 121.36 39.196 117.26 39.196C113.324 39.196 110.208 42.312 109.88 46.248C109.88 46.576 109.552 46.904 109.388 47.068C109.224 47.068 109.224 47.068 109.06 47.068C108.732 47.068 108.568 46.904 108.404 46.74C107.092 45.1 105.288 44.28 103.32 44.28C99.712 44.28 96.76 47.232 96.76 50.84C96.76 51.004 96.76 51.168 96.76 51.332V51.496C96.76 51.66 96.76 51.988 96.596 52.152C96.432 52.316 96.268 52.48 96.104 52.48C92.66 52.808 90.2 55.596 90.2 59.04C90.2 62.648 93.152 65.6 96.76 65.6H106.764C107.256 65.6 107.584 65.928 107.584 66.42C107.584 66.912 107.256 67.24 106.764 67.24H96.76C92.168 67.24 88.56 63.632 88.56 59.04C88.56 55.104 91.348 51.824 95.12 51.004V50.84C95.12 46.248 98.728 42.64 103.32 42.64C105.288 42.64 107.092 43.296 108.568 44.608C109.552 40.672 112.996 37.72 117.26 37.72Z" fill="#472B29"/>
<path d="M119.72 49.2C122.016 49.2 123.984 50.84 124.476 52.972C125.132 52.644 125.788 52.48 126.444 52.48C128.412 52.48 130.052 53.956 130.38 55.924C130.708 55.924 131.036 55.76 131.364 55.76C133.824 55.76 135.956 57.728 136.12 60.188C136.12 60.352 135.956 60.68 135.792 60.68C135.628 60.68 135.464 60.516 135.464 60.352C135.3 58.22 133.496 56.58 131.528 56.58C131.2 56.58 130.708 56.58 130.38 56.744C130.38 56.744 130.38 56.744 130.216 56.744C130.052 56.744 130.052 56.744 129.888 56.58C129.724 56.58 129.724 56.416 129.724 56.252C129.724 54.612 128.412 53.136 126.608 53.136C125.952 53.136 125.132 53.464 124.64 53.956C124.64 53.956 124.476 54.12 124.312 54.12H124.148C123.984 54.12 123.984 53.956 123.82 53.792C123.656 51.66 121.852 50.02 119.72 50.02C119.392 50.02 119.064 50.02 118.572 50.184C118.572 50.184 118.572 50.184 118.408 50.184C118.244 50.184 118.08 50.02 118.08 49.856C118.08 49.692 118.08 49.364 118.408 49.364C118.9 49.2 119.228 49.2 119.72 49.2ZM96.924 51.66C99.056 51.66 101.024 53.136 101.68 55.268C101.68 55.432 101.68 55.76 101.352 55.76C101.352 55.76 101.352 55.76 101.188 55.76C101.024 55.76 100.86 55.596 100.86 55.432C100.368 53.628 98.728 52.48 96.924 52.48C96.76 52.48 96.596 52.48 96.432 52.48C96.268 52.48 96.104 52.316 96.104 52.152C96.104 51.988 96.268 51.66 96.432 51.66C96.432 51.66 96.76 51.66 96.924 51.66Z" fill="#472B29"/>
<path d="M68.06 123.492C61.828 123.492 56.908 118.408 56.908 112.34V61.664C56.908 55.432 61.992 50.348 68.06 50.348H103.976C110.208 50.348 115.128 55.432 115.128 61.664V112.34C115.128 118.572 110.044 123.492 103.976 123.492H68.06Z" fill="#F69272"/>
<path d="M105.78 110.372V67.732C105.78 65.6 107.42 63.96 109.224 63.96H114.8V110.372H105.78Z" fill="#FAE8E6"/>
<path d="M104.14 51.496C109.716 51.496 114.144 56.088 114.144 61.5V112.176C114.144 117.752 109.552 122.344 103.976 122.344H68.06C62.484 122.344 57.892 117.752 57.892 112.176V61.5C57.892 55.924 62.484 51.496 68.06 51.496H104.14ZM104.14 49.2H68.224C61.336 49.2 55.76 54.776 55.76 61.5V112.176C55.76 119.064 61.336 124.64 68.06 124.64H103.976C110.864 124.64 116.44 119.064 116.44 112.176V61.5C116.44 54.776 110.864 49.2 104.14 49.2Z" fill="#472B29"/>
<path d="M105.78 119.72C105.288 119.72 104.96 119.392 104.96 118.9V68.552C104.96 66.092 107.092 63.96 109.552 63.96H115.62C116.112 63.96 116.44 64.288 116.44 64.78C116.44 65.272 116.112 65.6 115.62 65.6H109.552C107.912 65.6 106.6 66.912 106.6 68.552V118.9C106.6 119.392 106.272 119.72 105.78 119.72Z" fill="#472B29"/>
<path d="M72.324 87.576H94.792C96.268 87.576 97.58 86.264 97.58 84.788V69.044C97.58 67.568 96.268 66.256 94.792 66.256H72.324C70.848 66.256 69.536 67.568 69.536 69.044V84.788C69.7 86.428 70.848 87.576 72.324 87.576Z" fill="#FEFDEF"/>
<path d="M81.18 67.24H77.9C77.408 67.24 77.08 66.912 77.08 66.42C77.08 65.928 77.408 65.6 77.9 65.6H81.18C81.672 65.6 82 65.928 82 66.42C82 66.912 81.672 67.24 81.18 67.24Z" fill="#472B29"/>
<path d="M94.792 88.56H72.324C70.52 88.56 68.88 86.92 68.88 84.952V69.208C68.88 67.24 70.52 65.6 72.324 65.6H74.62C75.112 65.6 75.44 65.928 75.44 66.42C75.44 66.912 75.112 67.24 74.62 67.24H72.324C71.34 67.24 70.52 68.06 70.52 69.208V84.952C70.52 86.1 71.34 86.92 72.324 86.92H94.792C95.776 86.92 96.76 86.1 96.76 84.952V69.208C96.76 68.06 95.94 67.24 94.792 67.24H84.46C83.968 67.24 83.64 66.912 83.64 66.42C83.64 65.928 83.968 65.6 84.46 65.6H94.792C96.76 65.6 98.4 67.24 98.4 69.208V84.952C98.4 86.92 96.76 88.56 94.792 88.56Z" fill="#472B29"/>
<path d="M61.5 63.96H53.3C52.808 63.96 52.48 63.632 52.48 63.14C52.48 62.648 52.808 62.32 53.3 62.32H61.5C61.992 62.32 62.32 62.648 62.32 63.14C62.32 63.632 61.992 63.96 61.5 63.96Z" fill="#472B29"/>
<path d="M113.98 73.8H105.78C105.288 73.8 104.96 73.472 104.96 72.98C104.96 72.488 105.288 72.16 105.78 72.16H113.98C114.472 72.16 114.8 72.488 114.8 72.98C114.8 73.472 114.472 73.8 113.98 73.8Z" fill="#472B29"/>
<path d="M113.98 83.64H105.78C105.288 83.64 104.96 83.312 104.96 82.82C104.96 82.328 105.288 82 105.78 82H113.98C114.472 82 114.8 82.328 114.8 82.82C114.8 83.312 114.472 83.64 113.98 83.64Z" fill="#472B29"/>
<path d="M113.98 91.84H105.78C105.288 91.84 104.96 91.512 104.96 91.02C104.96 90.528 105.288 90.2 105.78 90.2H113.98C114.472 90.2 114.8 90.528 114.8 91.02C114.8 91.512 114.472 91.84 113.98 91.84Z" fill="#472B29"/>
<path d="M113.98 101.68H105.78C105.288 101.68 104.96 101.352 104.96 100.86C104.96 100.368 105.288 100.04 105.78 100.04H113.98C114.472 100.04 114.8 100.368 114.8 100.86C114.8 101.352 114.472 101.68 113.98 101.68Z" fill="#472B29"/>
<path d="M113.98 111.52H105.78C105.288 111.52 104.96 111.192 104.96 110.7C104.96 110.208 105.288 109.88 105.78 109.88H113.98C114.472 109.88 114.8 110.208 114.8 110.7C114.8 111.192 114.472 111.52 113.98 111.52Z" fill="#472B29"/>
<path d="M61.5 72.16H53.3C52.808 72.16 52.48 71.832 52.48 71.34C52.48 70.848 52.808 70.52 53.3 70.52H61.5C61.992 70.52 62.32 70.848 62.32 71.34C62.32 71.832 61.992 72.16 61.5 72.16Z" fill="#472B29"/>
<path d="M61.5 80.36H53.3C52.808 80.36 52.48 80.032 52.48 79.54C52.48 79.048 52.808 78.72 53.3 78.72H61.5C61.992 78.72 62.32 79.048 62.32 79.54C62.32 80.032 61.992 80.36 61.5 80.36Z" fill="#472B29"/>
<path d="M61.5 88.56H53.3C52.808 88.56 52.48 88.232 52.48 87.74C52.48 87.248 52.808 86.92 53.3 86.92H61.5C61.992 86.92 62.32 87.248 62.32 87.74C62.32 88.232 61.992 88.56 61.5 88.56Z" fill="#472B29"/>
<path d="M61.5 96.76H53.3C52.808 96.76 52.48 96.432 52.48 95.94C52.48 95.448 52.808 95.12 53.3 95.12H61.5C61.992 95.12 62.32 95.448 62.32 95.94C62.32 96.432 61.992 96.76 61.5 96.76Z" fill="#472B29"/>
<path d="M61.008 103.32H53.3C52.808 103.32 52.48 102.992 52.48 102.5C52.48 102.008 52.808 101.68 53.3 101.68H61.008C61.5 101.68 61.828 102.008 61.828 102.5C61.828 102.992 61.5 103.32 61.008 103.32Z" fill="#472B29"/>
<path d="M61.008 111.192H53.3C52.808 111.192 52.48 110.864 52.48 110.372C52.48 109.88 52.808 109.552 53.3 109.552H61.008C61.5 109.552 61.828 109.88 61.828 110.372C61.828 110.864 61.5 111.192 61.008 111.192Z" fill="#472B29"/>
<path d="M83.64 78.228C81.344 78.228 79.54 76.424 79.54 74.128C79.54 71.832 81.344 70.028 83.64 70.028C85.936 70.028 87.74 71.832 87.74 74.128C87.74 76.424 85.936 78.228 83.64 78.228Z" fill="#A3A3CD"/>
<path d="M83.64 71.012C85.444 71.012 86.92 72.488 86.92 74.292C86.92 76.096 85.444 77.572 83.64 77.572C81.836 77.572 80.36 76.096 80.36 74.292C80.36 72.488 81.836 71.012 83.64 71.012ZM83.64 69.372C81.016 69.372 78.72 71.504 78.72 74.292C78.72 77.08 80.852 79.212 83.64 79.212C86.428 79.212 88.56 77.08 88.56 74.292C88.56 71.504 86.428 69.372 83.64 69.372Z" fill="#472B29"/>
<path d="M76.26 87.74C76.588 83.148 79.704 79.376 83.64 79.376C87.576 79.376 90.692 82.984 91.02 87.74H76.26Z" fill="#A3A3CD"/>
<path d="M83.64 80.196C86.756 80.196 89.544 83.148 90.036 86.92H77.244C77.736 83.148 80.524 80.196 83.64 80.196ZM83.64 78.556C79.048 78.556 75.44 82.984 75.44 88.56H91.84C91.84 82.984 88.232 78.556 83.64 78.556Z" fill="#472B29"/>
<path d="M72.98 128.248L69.7 129.56V123.82H76.26V129.56L72.98 128.248Z" fill="#A3A3CD"/>
<path d="M75.44 124.64V128.412L73.472 127.756L72.816 127.592L72.16 127.756L70.52 128.412V124.64H75.44ZM77.08 123H68.88V130.708L72.98 129.232L77.08 130.708V123Z" fill="#472B29"/>
<path d="M56.58 118.9C56.58 118.9 59.204 118.9 62.32 118.9C65.436 118.9 68.06 116.276 68.06 113.16C68.06 110.208 65.928 107.912 62.976 107.42C62.976 107.092 63.14 106.764 63.14 106.6C63.14 103.484 60.516 100.86 57.4 100.86C55.76 100.86 54.12 101.68 53.136 102.828C52.48 99.876 49.856 97.58 46.74 97.58C43.132 97.58 40.18 100.532 40.18 104.14C40.18 104.468 40.18 104.796 40.344 105.124C39.688 104.632 38.704 104.14 37.72 104.14C35.752 104.14 34.112 105.616 33.62 107.584C33.292 107.584 32.964 107.42 32.8 107.42C29.684 107.42 27.06 110.044 27.06 113.16C27.06 116.276 29.684 118.9 32.8 118.9C35.916 118.9 45.1 118.9 45.1 118.9V119.72H56.58V118.9Z" fill="#FDFCEF"/>
<path d="M59.532 111.52C59.368 111.52 59.04 111.356 59.04 111.028C59.04 109.06 60.68 107.42 62.648 107.42C62.648 107.42 63.796 107.42 64.616 107.584C64.78 107.584 64.944 107.912 64.944 108.076C64.944 108.24 64.616 108.404 64.452 108.404C63.796 108.24 62.648 108.24 62.648 108.24C61.172 108.24 59.86 109.552 59.86 111.028C59.86 111.356 59.696 111.52 59.532 111.52ZM48.38 118.08C48.1625 118.08 47.9539 118.166 47.8002 118.32C47.6464 118.474 47.56 118.683 47.56 118.9C47.56 119.117 47.6464 119.326 47.8002 119.48C47.9539 119.634 48.1625 119.72 48.38 119.72C48.5975 119.72 48.806 119.634 48.9598 119.48C49.1136 119.326 49.2 119.117 49.2 118.9C49.2 118.683 49.1136 118.474 48.9598 118.32C48.806 118.166 48.5975 118.08 48.38 118.08Z" fill="#472B29"/>
<path d="M62.32 119.72H56.58C56.088 119.72 55.76 119.392 55.76 118.9C55.76 118.408 56.088 118.08 56.58 118.08H62.32C65.108 118.08 67.24 115.948 67.24 113.16C67.24 110.7 65.436 108.568 62.976 108.24C62.812 108.24 62.484 108.076 62.484 107.912C62.484 107.748 62.32 107.584 62.32 107.256C62.32 106.928 62.32 106.764 62.32 106.436C62.32 103.648 60.188 101.516 57.4 101.516C56.088 101.516 54.776 102.172 53.792 103.156C53.628 103.32 53.3 103.484 52.972 103.32C52.644 103.32 52.48 102.992 52.316 102.664C51.824 100.04 49.364 98.072 46.74 98.072C43.624 98.072 41 100.696 41 103.812C41 103.976 41 104.304 41 104.468C41 104.796 40.836 105.124 40.672 105.288C40.508 105.452 40.016 105.452 39.688 105.288C39.196 105.288 38.376 104.96 37.72 104.96C36.08 104.96 34.768 106.108 34.44 107.584C34.44 108.076 33.948 108.24 33.456 108.24C33.128 108.24 32.964 108.24 32.636 108.24C29.848 108.24 27.716 110.372 27.716 113.16C27.716 115.948 29.848 118.08 32.636 118.08H44.936C45.428 118.08 45.756 118.408 45.756 118.9C45.756 119.392 45.592 119.72 45.1 119.72H32.8C29.192 119.72 26.24 116.768 26.24 113.16C26.24 109.552 29.192 106.6 32.8 106.6C32.964 106.6 32.964 106.6 33.128 106.6C33.784 104.632 35.588 103.32 37.72 103.32C38.212 103.32 38.868 103.484 39.36 103.648C39.688 99.876 42.804 96.76 46.74 96.76C49.692 96.76 52.48 98.564 53.628 101.352C54.776 100.532 56.088 100.04 57.4 100.04C61.008 100.04 63.96 102.992 63.96 106.6V106.764C66.748 107.42 68.88 110.044 68.88 113.16C68.88 116.768 65.928 119.72 62.32 119.72Z" fill="#472B29"/>
<path d="M53.3 118.08C52.972 118.08 51.988 118.08 51.66 118.08C51.168 118.08 50.84 118.408 50.84 118.9C50.84 119.392 51.168 119.72 51.66 119.72C51.988 119.72 52.972 119.72 53.3 119.72C53.792 119.72 54.12 119.392 54.12 118.9C54.12 118.408 53.792 118.08 53.3 118.08Z" fill="#472B29"/>
</svg>
