<svg width="15" height="18" viewBox="0 0 15 18" fill="none" xmlns="http://www.w3.org/2000/svg">
<path d="M10.3184 9.70508C10.3184 10.4004 10.2656 11.0215 10.1602 11.5684C10.0547 12.1152 9.88867 12.5781 9.66211 12.957C9.43555 13.3359 9.14258 13.625 8.7832 13.8242C8.42383 14.0195 7.99219 14.1172 7.48828 14.1172C6.85156 14.1172 6.32422 13.9434 5.90625 13.5957C5.49219 13.248 5.18164 12.7461 4.97461 12.0898C4.77148 11.4297 4.66992 10.6348 4.66992 9.70508C4.66992 8.79102 4.76172 8.00586 4.94531 7.34961C5.13281 6.68945 5.43359 6.18359 5.84766 5.83203C6.26172 5.47656 6.80859 5.29883 7.48828 5.29883C8.13281 5.29883 8.66406 5.47461 9.08203 5.82617C9.5 6.17383 9.81055 6.67773 10.0137 7.33789C10.2168 7.99414 10.3184 8.7832 10.3184 9.70508ZM5.64844 9.70508C5.64844 10.502 5.70898 11.166 5.83008 11.6973C5.95117 12.2285 6.14648 12.627 6.41602 12.8926C6.68945 13.1543 7.04688 13.2852 7.48828 13.2852C7.92969 13.2852 8.28516 13.1543 8.55469 12.8926C8.82812 12.6309 9.02539 12.2344 9.14648 11.7031C9.27148 11.1719 9.33398 10.5059 9.33398 9.70508C9.33398 8.91992 9.27344 8.26367 9.15234 7.73633C9.03125 7.20508 8.83594 6.80664 8.56641 6.54102C8.29688 6.27148 7.9375 6.13672 7.48828 6.13672C7.03906 6.13672 6.67969 6.27148 6.41016 6.54102C6.14062 6.80664 5.94531 7.20508 5.82422 7.73633C5.70703 8.26367 5.64844 8.91992 5.64844 9.70508Z" fill="#344054"/>
<rect x="0.5" y="0.5" width="14" height="17" rx="7" stroke="#667085"/>
</svg>
