<svg width="40" height="33" viewBox="0 0 40 33" fill="none" xmlns="http://www.w3.org/2000/svg">
<path d="M31.773 15.6833C30.7529 13.7726 28.376 13.0505 26.4654 14.0706C25.2607 14.7118 24.5321 15.8905 24.409 17.1567C24.0917 19.7571 22.5567 22.1632 20.0729 23.4909C16.0185 25.6541 10.9764 24.1224 8.8132 20.068C6.64999 16.0136 8.18496 10.9747 12.2361 8.80828C14.7167 7.4838 17.5729 7.54856 19.9045 8.73056C19.9466 8.74999 19.9919 8.76942 20.034 8.79209C20.0502 8.8018 20.0664 8.80828 20.0794 8.81475C21.1642 9.33289 22.4693 9.34908 23.6092 8.74027C25.5165 7.72343 26.2354 5.34973 25.2186 3.44559C24.8203 2.69754 24.2115 2.13407 23.5088 1.78433V1.77785C18.9621 -0.544037 13.3954 -0.683286 8.54766 1.90414C0.678501 6.10427 -2.29429 15.8873 1.90583 23.7564C6.10595 31.6224 15.889 34.5984 23.7581 30.3983C28.4893 27.8724 31.4427 23.3225 32.1389 18.3873C32.3365 17.5032 32.2361 16.5479 31.7762 15.6865L31.773 15.6833Z" fill="white"/>
<path d="M31.2945 1.36015C29.4551 2.34137 28.3476 4.16131 28.1857 6.09784C27.9719 8.09913 26.8094 9.95793 24.9052 10.9748C23.1468 11.9139 21.1423 11.9268 19.4486 11.1885C17.6967 10.0357 15.3845 9.85107 13.4059 10.9068C10.5238 12.445 9.43245 16.0298 10.9707 18.9152C12.5089 21.7973 16.0937 22.8854 18.9791 21.3472C20.8346 20.3562 21.9454 18.5104 22.0879 16.5544C22.3372 14.6082 23.4901 12.8077 25.3554 11.8135C27.2627 10.7967 29.4583 10.8647 31.2394 11.8005L31.2556 11.7811C32.946 12.6976 35.0445 12.7753 36.8676 11.8038C39.7498 10.2656 40.8411 6.68074 39.3029 3.79862C37.7647 0.913262 34.1766 -0.17482 31.2945 1.36339V1.36015Z" fill="white"/>
</svg>
