<svg width="96" height="96" viewBox="0 0 96 96" fill="none" xmlns="http://www.w3.org/2000/svg">
<path d="M29.6311 3.65376C35.4547 1.24169 41.6966 0 48 0V24C44.8482 24 41.7274 24.6207 38.8155 25.827C35.9037 27.0331 33.258 28.8008 31.0294 31.0294C28.8008 33.258 27.0331 35.9037 25.827 38.8155C24.6207 41.7274 24 44.8482 24 48H0C0 41.6966 1.24169 35.4547 3.65376 29.6311C6.0661 23.8075 9.60165 18.5162 14.0588 14.0588C18.5162 9.60165 23.8075 6.0661 29.6311 3.65376Z" fill="#155EEF"/>
<path d="M0 48C0 54.3034 1.24169 60.5453 3.65376 66.3689C6.0661 72.1926 9.60165 77.4838 14.0588 81.9412C18.5162 86.3984 23.8075 89.9339 29.6311 92.3462C35.4547 94.7583 41.6966 96 48 96C54.3034 96 60.5453 94.7583 66.3689 92.3462C72.1926 89.9339 77.4838 86.3984 81.9412 81.9412C86.3984 77.4838 89.9339 72.1926 92.3462 66.3689C94.7583 60.5453 96 54.3034 96 48H72C72 51.1518 71.3793 54.2726 70.173 57.1845C68.9669 60.0963 67.1992 62.742 64.9706 64.9706C62.742 67.1992 60.0963 68.9669 57.1845 70.173C54.2726 71.3793 51.1518 72 48 72C44.8482 72 41.7274 71.3793 38.8155 70.173C35.9037 68.9669 33.258 67.1992 31.0294 64.9706C28.8008 62.742 27.0331 60.0963 25.827 57.1845C24.6207 54.2726 24 51.1518 24 48H0Z" fill="#84ADFF"/>
<path d="M47.9998 32.7271C39.5649 32.7271 32.7271 39.5649 32.7271 47.9998H63.2725C63.2725 39.5649 56.4347 32.7271 47.9998 32.7271Z" fill="#84ADFF"/>
<path d="M47.9998 63.2729C39.5649 63.2729 32.7271 56.4351 32.7271 48.0002H63.2725C63.2725 56.4351 56.4347 63.2729 47.9998 63.2729Z" fill="#155EEF"/>
</svg>
