<svg width="164" height="164" viewBox="0 0 164 164" fill="none" xmlns="http://www.w3.org/2000/svg">
<path d="M143.033 93.0044C144.894 89.4702 145.96 85.4522 145.96 81.18C145.96 70.3216 139.139 61.0785 129.558 57.4361C129.558 57.4246 129.56 57.4131 129.56 57.4C129.56 38.3793 114.141 22.96 95.12 22.96C79.0742 22.96 65.6312 33.9496 61.8067 48.8015C59.386 48.0061 56.8063 47.56 54.12 47.56C41.5051 47.56 31.1223 57.0605 29.7004 69.2933C21.1659 71.0989 14.76 78.6692 14.76 87.74C14.76 98.1556 23.2044 106.6 33.62 106.6C33.9103 106.6 34.1973 106.58 34.4826 106.564C34.4761 106.851 34.44 107.131 34.44 107.42C34.44 125.988 49.4919 141.04 68.06 141.04C78.6167 141.04 88.027 136.166 94.1918 128.553C97.7637 132.202 102.73 134.48 108.24 134.48C115.866 134.48 122.465 130.134 125.732 123.79C127.458 124.34 129.293 124.64 131.2 124.64C141.163 124.64 149.24 116.563 149.24 106.6C149.24 101.17 146.829 96.3123 143.033 93.0044Z" fill="#C7EDE6"/>
<path d="M130.995 99.22C130.995 99.22 136.965 99.22 141.04 99.22C145.115 99.22 148.42 95.9154 148.42 91.84C148.42 88.0139 145.498 84.9044 141.77 84.5338C141.806 84.237 141.86 83.9467 141.86 83.64C141.86 79.5646 138.555 76.26 134.48 76.26C132.122 76.26 130.047 77.385 128.696 79.107C128.466 74.784 124.92 71.34 120.54 71.34C116.012 71.34 112.34 75.012 112.34 79.54C112.34 80.2714 112.466 80.9668 112.647 81.6425C111.594 80.3682 110.021 79.54 108.24 79.54C105.319 79.54 102.936 81.7294 102.574 84.5502C102.277 84.5141 101.987 84.46 101.68 84.46C97.6046 84.46 94.3 87.7646 94.3 91.84C94.3 95.9154 97.6046 99.22 101.68 99.22C105.755 99.22 117.26 99.22 117.26 99.22H126.075V100.04H130.995V99.22Z" fill="#FDFCEF"/>
<path d="M120.54 70.52C115.566 70.52 111.52 74.5659 111.52 79.54C111.52 79.5662 111.52 79.5908 111.52 79.6171C110.533 79.0349 109.404 78.72 108.24 78.72C105.237 78.72 102.646 80.788 101.913 83.6482C101.836 83.6433 101.759 83.64 101.68 83.64C97.1585 83.64 93.48 87.3185 93.48 91.84C93.48 96.3615 97.1585 100.04 101.68 100.04H126.075C126.528 100.04 126.895 99.6726 126.895 99.22C126.895 98.7673 126.528 98.4 126.075 98.4H101.68C98.0621 98.4 95.12 95.4578 95.12 91.84C95.12 88.2221 98.0621 85.28 101.68 85.28C101.872 85.28 102.057 85.3079 102.242 85.3325L102.474 85.3636C102.508 85.3685 102.541 85.3702 102.575 85.3702C102.979 85.3702 103.333 85.0668 103.387 84.6535C103.7 82.205 105.787 80.36 108.24 80.36C109.691 80.36 111.066 81.0176 112.014 82.164C112.174 82.3575 112.409 82.4625 112.647 82.4625C112.775 82.4625 112.903 82.433 113.021 82.3706C113.363 82.1952 113.536 81.8032 113.437 81.4309C113.249 80.7175 113.16 80.1173 113.16 79.54C113.16 75.4711 116.471 72.16 120.54 72.16C124.445 72.16 127.669 75.2301 127.877 79.1513C127.895 79.4924 128.123 79.786 128.45 79.8893C128.532 79.9156 128.615 79.9287 128.699 79.9287C128.945 79.9287 129.184 79.8155 129.342 79.6138C130.606 78.0033 132.478 77.08 134.48 77.08C138.098 77.08 141.04 80.0221 141.04 83.64C141.04 83.8319 141.012 84.0172 140.988 84.2025L140.956 84.4338C140.93 84.6535 140.992 84.8733 141.13 85.0455C141.268 85.2177 141.47 85.3275 141.688 85.3489C145.06 85.6851 147.6 88.4763 147.6 91.84C147.6 95.4578 144.658 98.4 141.04 98.4H130.995C130.542 98.4 130.175 98.7673 130.175 99.22C130.175 99.6726 130.542 100.04 130.995 100.04H141.04C145.561 100.04 149.24 96.3615 149.24 91.84C149.24 87.9089 146.47 84.6027 142.675 83.8417C142.678 83.7745 142.68 83.7072 142.68 83.64C142.68 79.1185 139.001 75.44 134.48 75.44C132.551 75.44 130.719 76.1222 129.26 77.349C128.279 73.4064 124.73 70.52 120.54 70.52Z" fill="#472B29"/>
<path d="M118.08 82C115.779 82 113.801 83.6384 113.303 85.8392C112.701 85.4752 112.014 85.28 111.315 85.28C109.344 85.28 107.71 86.7511 107.456 88.6715C107.123 88.5961 106.807 88.56 106.498 88.56C103.991 88.56 101.888 90.528 101.713 93.0405C101.696 93.2668 101.867 93.4636 102.092 93.48C102.101 93.48 102.111 93.48 102.121 93.48C102.334 93.48 102.515 93.3144 102.529 93.0995C102.675 91.0151 104.417 89.38 106.497 89.38C106.872 89.38 107.267 89.4489 107.707 89.5883C107.743 89.5998 107.781 89.6047 107.817 89.6047C107.907 89.6047 107.997 89.5719 108.073 89.5161C108.178 89.4407 108.24 89.3062 108.24 89.175C108.24 87.4792 109.619 86.1 111.315 86.1C112.048 86.1 112.766 86.3755 113.334 86.8757C113.411 86.943 113.508 86.979 113.604 86.979C113.657 86.979 113.708 86.9692 113.757 86.9479C113.901 86.8905 114 86.756 114.011 86.6002C114.182 84.4797 115.968 82.82 118.08 82.82C118.421 82.82 118.777 82.8758 119.198 82.9955C119.236 83.007 119.276 83.0119 119.313 83.0119C119.492 83.0119 119.653 82.8922 119.705 82.7134C119.768 82.4953 119.641 82.269 119.423 82.2066C118.928 82.0656 118.5 82 118.08 82ZM140.848 84.46C138.673 84.46 136.735 85.9311 136.135 88.0385C136.072 88.2566 136.199 88.4829 136.417 88.5452C136.456 88.5551 136.494 88.56 136.53 88.56C136.709 88.56 136.873 88.4419 136.924 88.2615C137.424 86.5067 139.038 85.28 140.848 85.28C141.04 85.28 141.225 85.303 141.409 85.3276C141.429 85.3308 141.447 85.3325 141.466 85.3325C141.665 85.3325 141.842 85.1816 141.87 84.9766C141.901 84.7519 141.744 84.5453 141.519 84.5158C141.299 84.4862 141.076 84.46 140.848 84.46Z" fill="#472B29"/>
<path d="M25.2642 83.64H9.01995C8.56731 83.64 8.19995 83.2726 8.19995 82.82C8.19995 82.3674 8.56731 82 9.01995 82H25.2642C25.7168 82 26.0842 82.3674 26.0842 82.82C26.0842 83.2726 25.7184 83.64 25.2642 83.64ZM30.34 83.64H28.7C28.2473 83.64 27.88 83.2726 27.88 82.82C27.88 82.3674 28.2473 82 28.7 82H30.34C30.7926 82 31.16 82.3674 31.16 82.82C31.16 83.2726 30.7942 83.64 30.34 83.64ZM38.5252 86.92H23.78C23.3273 86.92 22.96 86.5526 22.96 86.1C22.96 85.6474 23.3273 85.28 23.78 85.28H38.5252C38.9778 85.28 39.3452 85.6474 39.3452 86.1C39.3452 86.5526 38.9778 86.92 38.5252 86.92ZM20.5 86.92H18.86C18.4073 86.92 18.04 86.5526 18.04 86.1C18.04 85.6474 18.4073 85.28 18.86 85.28H20.5C20.9526 85.28 21.32 85.6474 21.32 86.1C21.32 86.5526 20.9542 86.92 20.5 86.92ZM15.58 86.92H12.3C11.8473 86.92 11.48 86.5526 11.48 86.1C11.48 85.6474 11.8473 85.28 12.3 85.28H15.58C16.0326 85.28 16.4 85.6474 16.4 86.1C16.4 86.5526 16.0342 86.92 15.58 86.92ZM25.42 90.2H22.14C21.6873 90.2 21.32 89.8326 21.32 89.38C21.32 88.9274 21.6873 88.56 22.14 88.56H25.42C25.8726 88.56 26.24 88.9274 26.24 89.38C26.24 89.8326 25.8726 90.2 25.42 90.2ZM30.34 75.44C30.0497 75.44 28.9902 75.44 28.7 75.44C28.2473 75.44 27.88 75.8074 27.88 76.26C27.88 76.7126 28.2473 77.08 28.7 77.08C28.9902 77.08 30.0497 77.08 30.34 77.08C30.7926 77.08 31.16 76.7126 31.16 76.26C31.16 75.8074 30.7926 75.44 30.34 75.44ZM30.34 78.72C30.0497 78.72 22.4302 78.72 22.14 78.72C21.6873 78.72 21.32 79.0874 21.32 79.54C21.32 79.9926 21.6873 80.36 22.14 80.36C22.4302 80.36 30.0497 80.36 30.34 80.36C30.7926 80.36 31.16 79.9926 31.16 79.54C31.16 79.0874 30.7926 78.72 30.34 78.72ZM38.54 82C38.2497 82 33.9102 82 33.62 82C33.1673 82 32.8 82.3674 32.8 82.82C32.8 83.2726 33.1673 83.64 33.62 83.64C33.9102 83.64 38.2497 83.64 38.54 83.64C38.9926 83.64 39.36 83.2726 39.36 82.82C39.36 82.3674 38.9926 82 38.54 82Z" fill="white"/>
<path d="M118.9 39.36H102.5C102.047 39.36 101.68 38.9926 101.68 38.54C101.68 38.0874 102.047 37.72 102.5 37.72H118.9C119.353 37.72 119.72 38.0874 119.72 38.54C119.72 38.9926 119.353 39.36 118.9 39.36ZM125.46 39.36H122.18C121.727 39.36 121.36 38.9926 121.36 38.54C121.36 38.0874 121.727 37.72 122.18 37.72H125.46C125.913 37.72 126.28 38.0874 126.28 38.54C126.28 38.9926 125.913 39.36 125.46 39.36ZM133.66 42.64H117.26C116.807 42.64 116.44 42.2726 116.44 41.82C116.44 41.3674 116.807 41 117.26 41H133.66C134.113 41 134.48 41.3674 134.48 41.82C134.48 42.2726 134.114 42.64 133.66 42.64ZM113.98 42.64H112.34C111.887 42.64 111.52 42.2726 111.52 41.82C111.52 41.3674 111.887 41 112.34 41H113.98C114.433 41 114.8 41.3674 114.8 41.82C114.8 42.2726 114.433 42.64 113.98 42.64ZM108.855 42.64H105.78C105.327 42.64 104.96 42.2726 104.96 41.82C104.96 41.3674 105.327 41 105.78 41H108.855C109.308 41 109.675 41.3674 109.675 41.82C109.675 42.2726 109.308 42.64 108.855 42.64ZM123.82 36.08H115.62C115.167 36.08 114.8 35.7126 114.8 35.26C114.8 34.8074 115.167 34.44 115.62 34.44H123.82C124.273 34.44 124.64 34.8074 124.64 35.26C124.64 35.7126 124.274 36.08 123.82 36.08ZM118.9 45.92H115.62C115.167 45.92 114.8 45.5526 114.8 45.1C114.8 44.6474 115.167 44.28 115.62 44.28H118.9C119.353 44.28 119.72 44.6474 119.72 45.1C119.72 45.5526 119.353 45.92 118.9 45.92Z" fill="white"/>
<path d="M60.68 116.932C54.079 116.932 48.708 111.563 48.708 104.96V59.04C48.708 52.439 54.0774 47.068 60.68 47.068H106.6C113.201 47.068 118.572 52.4374 118.572 59.04V104.96C118.572 111.561 113.203 116.932 106.6 116.932H60.68Z" fill="#EF5390"/>
<path d="M106.6 48.216C112.568 48.216 117.424 53.072 117.424 59.04V104.96C117.424 110.928 112.568 115.784 106.6 115.784H60.6801C54.7121 115.784 49.8561 110.928 49.8561 104.96V59.04C49.8561 53.072 54.7121 48.216 60.6801 48.216H106.6ZM106.6 45.92H60.6801C53.4345 45.92 47.5601 51.7945 47.5601 59.04V104.96C47.5601 112.206 53.4345 118.08 60.6801 118.08H106.6C113.846 118.08 119.72 112.206 119.72 104.96V59.04C119.72 51.7945 113.846 45.92 106.6 45.92Z" fill="#472B29"/>
<path d="M112.251 77.918C111.799 77.918 111.431 77.5507 111.431 77.098V71.0202C111.431 70.5676 111.799 70.2002 112.251 70.2002C112.704 70.2002 113.071 70.5676 113.071 71.0202V77.098C113.071 77.5507 112.704 77.918 112.251 77.918Z" fill="#472B29"/>
<path d="M112.353 67.3384C111.901 67.3384 111.533 66.971 111.533 66.5184V63.3811C111.533 62.9284 111.901 62.5611 112.353 62.5611C112.806 62.5611 113.173 62.9284 113.173 63.3811V66.5184C113.173 66.971 112.807 67.3384 112.353 67.3384Z" fill="#472B29"/>
<path d="M105.372 111.418H62.0117C57.7166 111.418 54.2234 107.923 54.2234 103.63V60.2684C54.2234 55.9748 57.7166 52.48 62.0117 52.48H101.306C101.759 52.48 102.126 52.8474 102.126 53.3C102.126 53.7526 101.759 54.12 101.306 54.12H62.0117C58.6219 54.12 55.8634 56.8785 55.8634 60.2684V103.628C55.8634 107.018 58.6219 109.777 62.0117 109.777H105.372C108.762 109.777 111.52 107.018 111.52 103.628V81.367C111.52 80.9143 111.887 80.547 112.34 80.547C112.793 80.547 113.16 80.9143 113.16 81.367V103.628C113.16 107.923 109.667 111.418 105.372 111.418Z" fill="#472B29"/>
<path d="M59.8601 122.18C59.8601 122.18 62.43 122.18 65.6001 122.18C68.7702 122.18 71.3401 119.61 71.3401 116.44C71.3401 113.519 69.1507 111.136 66.3299 110.774C66.3758 110.48 66.4201 110.187 66.4201 109.88C66.4201 106.71 63.8502 104.14 60.6801 104.14C58.9876 104.14 57.4821 104.886 56.4325 106.051C55.8027 103.085 53.1738 100.86 50.0201 100.86C46.3973 100.86 43.4601 103.797 43.4601 107.42C43.4601 107.733 43.5093 108.033 43.5519 108.335C42.85 107.771 41.971 107.42 41.0001 107.42C38.9862 107.42 37.3183 108.875 36.9739 110.79C36.6803 110.744 36.3868 110.7 36.0801 110.7C32.91 110.7 30.3401 113.27 30.3401 116.44C30.3401 119.61 32.91 122.18 36.0801 122.18C39.2502 122.18 48.3801 122.18 48.3801 122.18V123H59.8601V122.18Z" fill="#FDFCEF"/>
<path d="M62.7301 114.8C62.5038 114.8 62.3201 114.616 62.3201 114.39C62.3201 112.384 63.9519 110.752 65.9576 110.752C66.0134 110.767 67.1663 110.751 67.9978 110.976C68.2159 111.035 68.3454 111.259 68.2864 111.477C68.2274 111.697 68.0027 111.827 67.7846 111.766C67.0564 111.569 65.9806 111.569 65.9593 111.572C64.4045 111.572 63.1401 112.837 63.1401 114.39C63.1401 114.616 62.9564 114.8 62.7301 114.8ZM51.6601 121.36C51.4426 121.36 51.234 121.446 51.0803 121.6C50.9265 121.754 50.8401 121.963 50.8401 122.18C50.8401 122.397 50.9265 122.606 51.0803 122.76C51.234 122.914 51.4426 123 51.6601 123C51.8776 123 52.0861 122.914 52.2399 122.76C52.3937 122.606 52.4801 122.397 52.4801 122.18C52.4801 121.963 52.3937 121.754 52.2399 121.6C52.0861 121.446 51.8776 121.36 51.6601 121.36Z" fill="#472B29"/>
<path d="M65.6 123H59.86C59.4074 123 59.04 122.633 59.04 122.18C59.04 121.727 59.4074 121.36 59.86 121.36H65.6C68.3126 121.36 70.52 119.153 70.52 116.44C70.52 113.987 68.675 111.9 66.2265 111.587C66.0067 111.558 65.8083 111.443 65.6755 111.266C65.5426 111.089 65.4869 110.866 65.5213 110.648C65.559 110.395 65.6 110.142 65.6 109.88C65.6 107.167 63.3926 104.96 60.68 104.96C59.286 104.96 57.9937 105.542 57.0409 106.6C56.8359 106.828 56.5144 106.925 56.2209 106.843C55.9224 106.762 55.6944 106.523 55.6305 106.221C55.0712 103.591 52.7113 101.68 50.02 101.68C46.8548 101.68 44.28 104.255 44.28 107.42C44.28 107.655 44.3145 107.879 44.3473 108.106C44.3948 108.438 44.2439 108.824 43.9504 108.991C43.6568 109.158 43.3009 109.185 43.0385 108.975C42.4399 108.494 41.7364 108.24 41 108.24C39.4158 108.24 38.0611 109.373 37.7807 110.936C37.702 111.374 37.2953 111.668 36.8475 111.6C36.595 111.561 36.3424 111.52 36.08 111.52C33.3675 111.52 31.16 113.727 31.16 116.44C31.16 119.153 33.3675 121.36 36.08 121.36H48.38C48.8327 121.36 49.2 121.727 49.2 122.18C49.2 122.633 48.8327 123 48.38 123H36.08C32.4622 123 29.52 120.058 29.52 116.44C29.52 112.822 32.4622 109.88 36.08 109.88C36.1768 109.88 36.2703 109.883 36.3654 109.89C37.0443 107.945 38.8861 106.6 41 106.6C41.5724 106.6 42.13 106.7 42.6581 106.895C42.9287 103.069 46.1267 100.04 50.02 100.04C53.0229 100.04 55.7043 101.888 56.8309 104.589C57.9461 103.773 59.2942 103.32 60.68 103.32C64.2979 103.32 67.24 106.262 67.24 109.88C67.24 109.959 67.2384 110.036 67.2335 110.113C70.092 110.848 72.16 113.437 72.16 116.44C72.16 120.058 69.2179 123 65.6 123Z" fill="#472B29"/>
<path d="M56.5801 121.36C56.3194 121.36 55.2009 121.36 54.9401 121.36C54.4875 121.36 54.1201 121.727 54.1201 122.18C54.1201 122.633 54.4875 123 54.9401 123C55.2009 123 56.3194 123 56.5801 123C57.0328 123 57.4001 122.633 57.4001 122.18C57.4001 121.727 57.0328 121.36 56.5801 121.36Z" fill="#472B29"/>
<path d="M83.6383 60.6816C71.8844 60.6816 62.3215 70.2445 62.3215 81.9984C62.3215 87.8089 64.6635 93.0798 68.4486 96.9306C68.4879 96.9781 68.5207 97.029 68.565 97.0732C68.6109 97.1192 68.6618 97.1503 68.7093 97.1897C72.5584 100.975 77.8294 103.317 83.6399 103.317C95.3938 103.317 104.958 93.7539 104.958 81.9984C104.955 70.2445 95.3921 60.6816 83.6383 60.6816ZM83.6383 64.8374C87.6218 64.8374 91.2839 66.215 94.1999 68.5012L70.1394 92.56C67.8533 89.644 66.4757 85.9819 66.4757 81.9984C66.4757 72.5356 74.1755 64.8374 83.6383 64.8374ZM83.6383 99.1626C79.6547 99.1626 75.9926 97.785 73.0767 95.4988L97.1387 71.4384C99.4249 74.3543 100.802 78.0164 100.802 82C100.801 91.4628 93.1027 99.1626 83.6383 99.1626Z" fill="#FDFCEE"/>
<path d="M83.64 103.728C77.9229 103.728 72.5191 101.509 68.4224 97.4832C68.3634 97.4406 68.3175 97.4045 68.2765 97.3635C68.2355 97.3242 68.1994 97.2766 68.1633 97.2307C64.1305 93.1208 61.9116 87.7154 61.9116 82C61.9116 70.0182 71.6581 60.2716 83.6383 60.2716C95.6169 60.2716 105.365 70.0182 105.368 82C105.368 93.9818 95.6218 103.728 83.64 103.728ZM83.6383 61.0916C72.1108 61.0916 62.7316 70.4708 62.7316 82C62.7316 87.5006 64.8653 92.6994 68.7406 96.6452L68.9981 96.8978C72.9406 100.773 78.1394 102.908 83.64 102.908C95.1692 102.908 104.548 93.5292 104.548 82C104.545 70.4708 95.1643 61.0916 83.6383 61.0916ZM83.6383 99.5726C79.6941 99.5726 75.9549 98.2754 72.8242 95.8219L72.4601 95.5366L97.1749 70.8218L97.4603 71.1858C99.9137 74.3166 101.211 78.0558 101.211 82.0016C101.211 91.6891 93.3291 99.5726 83.6383 99.5726ZM73.6983 95.4578C76.6044 97.6144 80.032 98.7526 83.6383 98.7526C92.8765 98.7526 100.391 91.2381 100.391 82C100.391 78.3936 99.2528 74.966 97.0962 72.0583L73.6983 95.4578ZM70.1018 93.1766L69.8164 92.8125C67.363 89.6834 66.0657 85.9442 66.0657 81.9984C66.0657 72.3076 73.9492 64.4241 83.6383 64.4241C87.5858 64.4241 91.325 65.7214 94.4525 68.1764L94.8166 68.4618L70.1018 93.1766ZM83.6383 65.2458C74.4019 65.2458 66.8857 72.7619 66.8857 82C66.8857 85.6064 68.0223 89.0323 70.1805 91.94L93.5784 68.5422C90.6739 66.3856 87.2463 65.2458 83.6383 65.2458Z" fill="#472B29"/>
</svg>
