<svg width="22" height="30" viewBox="0 0 22 30" fill="none" xmlns="http://www.w3.org/2000/svg">
<path d="M11.0001 22.3334H11.0134M5.93341 28.3334H16.0667C17.5602 28.3334 18.307 28.3334 18.8774 28.0427C19.3792 27.787 19.7871 27.3791 20.0428 26.8773C20.3334 26.3069 20.3334 25.5602 20.3334 24.0667V5.93335C20.3334 4.43988 20.3334 3.69314 20.0428 3.12271C19.7871 2.62095 19.3792 2.213 18.8774 1.95734C18.307 1.66669 17.5602 1.66669 16.0667 1.66669H5.93341C4.43994 1.66669 3.6932 1.66669 3.12277 1.95734C2.62101 2.213 2.21306 2.62095 1.9574 3.12271C1.66675 3.69314 1.66675 4.43988 1.66675 5.93335V24.0667C1.66675 25.5602 1.66675 26.3069 1.9574 26.8773C2.21306 27.3791 2.62101 27.787 3.12277 28.0427C3.6932 28.3334 4.43994 28.3334 5.93341 28.3334ZM11.6667 22.3334C11.6667 22.7015 11.3683 23 11.0001 23C10.6319 23 10.3334 22.7015 10.3334 22.3334C10.3334 21.9652 10.6319 21.6667 11.0001 21.6667C11.3683 21.6667 11.6667 21.9652 11.6667 22.3334Z" stroke="#101828" stroke-width="2" stroke-linecap="round" stroke-linejoin="round"/>
</svg>
