<svg width="22" height="21" viewBox="0 0 22 21" fill="none" xmlns="http://www.w3.org/2000/svg">
<path d="M10.2827 2.4533C10.5131 1.98636 10.6284 1.75289 10.7848 1.6783C10.9209 1.6134 11.0791 1.6134 11.2152 1.6783C11.3717 1.75289 11.4869 1.98636 11.7174 2.4533L13.9041 6.88327C13.9721 7.02112 14.0061 7.09004 14.0558 7.14356C14.0999 7.19094 14.1527 7.22933 14.2113 7.25661C14.2776 7.28741 14.3536 7.29852 14.5057 7.32076L19.397 8.03569C19.9121 8.11098 20.1696 8.14862 20.2888 8.27442C20.3925 8.38388 20.4412 8.53428 20.4215 8.68376C20.3988 8.85556 20.2124 9.03716 19.8395 9.40037L16.3014 12.8464C16.1912 12.9538 16.136 13.0075 16.1004 13.0714C16.0689 13.128 16.0487 13.1902 16.0409 13.2545C16.0321 13.3271 16.0451 13.403 16.0711 13.5547L16.906 18.4221C16.994 18.9355 17.038 19.1922 16.9553 19.3445C16.8833 19.477 16.7554 19.57 16.6071 19.5975C16.4366 19.6291 16.2061 19.5078 15.7451 19.2654L11.3724 16.9658C11.2361 16.8942 11.168 16.8583 11.0962 16.8443C11.0327 16.8318 10.9673 16.8318 10.9038 16.8443C10.832 16.8583 10.7639 16.8942 10.6277 16.9658L6.25492 19.2654C5.79392 19.5078 5.56341 19.6291 5.39297 19.5975C5.24468 19.57 5.11672 19.477 5.04474 19.3445C4.962 19.1922 5.00603 18.9355 5.09407 18.4221L5.92889 13.5547C5.95491 13.403 5.96793 13.3271 5.95912 13.2545C5.95132 13.1902 5.93111 13.128 5.89961 13.0714C5.86402 13.0075 5.80888 12.9538 5.69859 12.8464L2.16056 9.40037C1.78766 9.03716 1.60121 8.85556 1.57853 8.68376C1.55879 8.53428 1.60755 8.38388 1.71125 8.27442C1.83044 8.14862 2.08797 8.11098 2.60304 8.03569L7.49431 7.32076C7.64642 7.29852 7.72248 7.28741 7.78872 7.25661C7.84736 7.22933 7.90016 7.19094 7.94419 7.14356C7.99391 7.09004 8.02793 7.02112 8.09597 6.88327L10.2827 2.4533Z" stroke="#667085" stroke-width="2" stroke-linecap="round" stroke-linejoin="round"/>
</svg>
